<svg id="svg" version="1.1" xmlns="http://www.w3.org/2000/svg" xmlns:xlink="http://www.w3.org/1999/xlink" width="400" height="329.7906602254428" viewBox="0, 0, 400,329.7906602254428"><g id="svgg"><path id="path0" d="M127.698 0.643 C 127.177 1.219,127.100 2.178,126.961 9.917 L 126.805 18.548 115.335 19.951 C 102.277 21.550,101.654 21.684,101.510 22.930 C 101.361 24.223,102.397 24.623,115.186 28.211 L 126.507 31.388 126.740 38.378 C 126.999 46.168,127.152 46.806,128.796 46.964 C 130.907 47.167,132.327 46.078,143.534 35.655 L 144.556 34.704 154.555 37.159 C 170.976 41.190,171.449 40.843,162.158 31.562 C 158.881 28.289,156.200 25.522,156.200 25.413 C 156.200 25.305,158.843 23.129,162.074 20.579 C 169.665 14.586,170.370 13.944,170.370 13.017 C 170.370 11.169,168.817 11.187,155.878 13.190 L 145.733 14.761 138.310 7.380 C 130.181 -0.701,129.377 -1.212,127.698 0.643 M67.622 59.434 C 67.259 59.871,68.430 70.666,69.106 73.118 C 69.218 73.523,67.797 73.888,61.110 75.170 C 47.157 77.845,47.198 78.230,61.879 82.422 L 71.377 85.133 72.967 91.247 C 75.551 101.182,75.934 101.259,82.776 93.237 C 84.589 91.111,86.173 89.260,86.297 89.123 C 86.420 88.986,90.335 89.755,94.997 90.831 C 108.143 93.866,108.499 93.520,100.179 85.808 C 97.158 83.008,94.686 80.670,94.686 80.613 C 94.686 80.556,96.461 78.478,98.631 75.996 C 105.400 68.253,105.126 67.981,92.453 69.871 L 84.262 71.092 78.926 66.529 C 69.410 58.390,68.804 58.009,67.622 59.434 M136.554 142.995 L 136.554 168.438 144.444 168.438 L 152.335 168.438 152.335 142.995 L 152.335 117.552 144.444 117.552 L 136.554 117.552 136.554 142.995 M163.929 143.137 L 163.929 168.760 176.570 168.753 C 194.913 168.742,198.973 168.291,204.470 165.656 C 219.845 158.283,219.856 127.815,204.486 120.467 C 198.842 117.769,198.739 117.757,180.274 117.628 L 163.929 117.515 163.929 143.137 M239.775 118.027 C 227.021 120.380,221.213 132.287,223.982 150.403 C 226.265 165.337,232.197 168.741,255.958 168.755 L 264.734 168.760 264.734 162.185 L 264.734 155.609 255.958 155.473 C 246.487 155.325,245.772 155.216,243.267 153.534 C 238.508 150.338,237.814 137.793,242.156 133.446 C 244.626 130.974,247.323 130.435,257.225 130.435 L 264.734 130.435 264.734 123.994 L 264.734 117.552 253.382 117.581 C 245.599 117.601,241.320 117.741,239.775 118.027 M54.554 122.198 C 54.457 122.450,54.872 125.204,55.475 128.317 C 56.078 131.430,56.543 133.977,56.508 133.977 C 56.473 133.977,53.056 134.710,48.915 135.606 C 37.442 138.088,37.492 138.220,51.407 142.184 L 60.140 144.672 62.506 149.675 C 66.444 158.002,66.431 157.999,72.460 152.326 L 76.576 148.453 83.849 149.750 C 92.056 151.213,94.045 151.356,94.037 150.483 C 94.029 149.624,93.910 149.502,88.567 144.921 C 85.821 142.567,83.610 140.555,83.652 140.449 C 83.695 140.344,84.963 138.500,86.470 136.352 C 90.980 129.926,90.834 129.834,77.995 131.045 L 71.770 131.633 64.376 126.686 C 56.822 121.633,55.077 120.835,54.554 122.198 M191.626 130.771 C 198.414 131.845,201.107 137.216,199.697 146.865 C 198.664 153.925,196.566 155.252,186.071 155.477 L 179.388 155.621 179.388 143.028 L 179.388 130.435 184.461 130.437 C 187.250 130.439,190.475 130.589,191.626 130.771 M0.000 220.773 L 0.000 246.377 7.729 246.377 L 15.459 246.377 15.459 236.393 L 15.459 226.409 23.349 226.409 L 31.240 226.409 31.240 236.393 L 31.240 246.377 38.969 246.377 L 46.699 246.377 46.699 220.773 L 46.699 195.169 38.969 195.169 L 31.240 195.169 31.240 204.831 L 31.240 214.493 23.349 214.493 L 15.459 214.493 15.459 204.831 L 15.459 195.169 7.729 195.169 L 0.000 195.169 0.000 220.773 M66.979 195.664 C 64.965 196.285,63.045 198.025,62.123 200.067 L 61.353 201.771 61.353 220.451 C 61.353 240.727,61.286 239.921,63.184 242.735 C 63.848 243.719,64.681 244.373,66.259 245.150 L 68.423 246.216 85.097 246.312 L 101.771 246.409 101.771 240.113 L 101.771 233.816 89.211 233.816 L 76.651 233.816 76.651 230.113 L 76.651 226.409 88.567 226.409 L 100.483 226.409 100.483 220.451 L 100.483 214.493 88.567 214.493 L 76.651 214.493 76.651 210.950 L 76.651 207.407 89.211 207.407 L 101.771 207.407 101.771 201.288 L 101.771 195.169 85.105 195.192 C 71.799 195.209,68.144 195.305,66.979 195.664 M116.264 220.773 L 116.264 246.377 123.994 246.377 L 131.723 246.377 131.723 237.198 L 131.723 228.019 135.507 228.027 C 141.522 228.039,142.815 228.560,144.370 231.593 C 145.004 232.831,148.377 244.942,148.465 246.296 C 148.468 246.341,152.103 246.377,156.543 246.377 C 164.082 246.377,164.606 246.339,164.449 245.813 C 160.355 232.093,158.320 227.010,156.036 224.796 L 154.952 223.745 157.177 221.589 C 164.496 214.498,162.613 201.895,153.551 197.325 C 149.514 195.288,148.294 195.169,131.510 195.169 L 116.264 195.169 116.264 220.773 M174.557 201.606 L 174.557 208.043 185.865 208.128 L 197.173 208.213 188.544 218.035 C 174.962 233.496,174.128 234.722,174.112 239.237 C 174.101 242.695,175.092 244.351,177.943 245.637 C 179.119 246.167,180.698 246.224,196.699 246.312 L 214.171 246.408 214.171 239.794 L 214.171 233.180 202.763 233.096 L 191.354 233.011 199.751 223.349 C 204.370 218.035,209.017 212.528,210.080 211.111 C 214.666 204.994,215.428 200.068,212.214 197.316 C 209.730 195.190,209.522 195.169,191.106 195.169 L 174.557 195.169 174.557 201.606 M228.411 217.311 L 228.502 239.452 229.244 241.063 C 231.554 246.084,232.008 246.195,250.644 246.314 L 266.023 246.411 266.023 239.792 L 266.023 233.172 254.911 233.172 L 243.800 233.172 243.800 214.171 L 243.800 195.169 236.060 195.169 L 228.320 195.169 228.411 217.311 M276.006 220.773 L 276.006 246.377 283.897 246.377 L 291.787 246.377 291.787 220.773 L 291.787 195.169 283.897 195.169 L 276.006 195.169 276.006 220.773 M298.966 195.405 C 299.042 195.541,303.038 202.709,307.845 211.334 L 316.586 227.015 316.586 236.696 L 316.586 246.377 324.477 246.377 L 332.367 246.377 332.367 236.687 L 332.367 226.997 340.466 212.452 C 344.920 204.452,348.921 197.288,349.357 196.532 L 350.148 195.158 342.177 195.244 L 334.206 195.330 329.477 204.588 C 326.876 209.679,324.687 213.906,324.612 213.981 C 324.538 214.056,322.279 209.890,319.594 204.724 L 314.711 195.330 306.770 195.244 C 302.402 195.197,298.890 195.269,298.966 195.405 M366.023 195.544 C 364.976 196.122,363.585 197.517,363.066 198.510 C 362.639 199.328,344.928 245.960,344.928 246.267 C 344.928 246.334,348.225 246.350,352.254 246.302 L 359.581 246.216 361.403 241.224 L 363.225 236.232 372.877 236.147 L 382.528 236.062 384.300 241.139 L 386.072 246.216 393.036 246.303 L 400.000 246.389 400.000 244.121 C 400.000 241.933,399.712 241.100,391.912 220.685 C 382.776 196.776,383.061 197.433,381.263 196.131 L 379.936 195.169 373.301 195.179 C 369.086 195.185,366.432 195.318,366.023 195.544 M143.635 208.140 C 146.953 209.895,146.957 213.660,143.642 215.596 C 142.663 216.168,141.830 216.268,137.121 216.376 L 131.723 216.499 131.723 211.953 L 131.723 207.407 136.986 207.407 C 141.841 207.407,142.357 207.464,143.635 208.140 M376.068 216.264 C 377.352 220.515,378.408 224.102,378.413 224.235 C 378.418 224.368,375.870 224.477,372.751 224.477 C 368.350 224.477,367.114 224.387,367.230 224.074 C 367.312 223.853,368.523 220.224,369.921 216.011 C 373.239 206.006,372.964 205.995,376.068 216.264 M137.838 280.435 C 137.633 281.453,137.251 283.259,136.987 284.447 L 136.508 286.608 131.539 289.213 C 124.924 292.681,124.679 292.272,135.328 295.530 C 139.622 296.844,143.226 298.024,143.335 298.154 C 143.445 298.284,144.809 300.025,146.366 302.024 C 150.488 307.314,150.175 307.270,155.738 303.329 L 159.903 300.377 165.539 300.775 C 168.639 300.994,171.755 301.246,172.464 301.336 C 175.653 301.741,175.438 300.948,171.197 296.653 L 167.358 292.767 168.381 289.410 C 170.006 284.077,170.463 284.380,160.792 284.380 L 153.425 284.380 146.841 281.485 C 138.752 277.928,138.351 277.881,137.838 280.435 M198.593 306.039 C 198.486 306.437,198.397 307.638,198.394 308.706 L 198.390 310.649 194.525 312.560 C 192.399 313.611,190.660 314.640,190.660 314.846 C 190.660 315.064,192.956 315.794,196.113 316.580 L 201.565 317.939 204.027 320.644 C 206.961 323.867,206.740 323.840,210.489 321.436 L 213.472 319.523 218.663 319.295 C 224.876 319.022,224.837 319.060,221.908 316.111 L 219.583 313.771 219.937 311.493 C 220.473 308.039,220.552 308.212,218.438 308.214 C 217.419 308.214,214.990 308.364,213.039 308.547 L 209.492 308.879 204.772 307.097 C 199.476 305.097,198.873 304.994,198.593 306.039 M247.197 317.633 C 247.127 317.854,246.951 318.578,246.804 319.240 C 246.575 320.280,246.231 320.636,244.305 321.832 C 241.321 323.685,241.342 323.793,244.833 324.647 C 247.458 325.290,248.049 325.572,249.641 326.941 C 251.826 328.820,251.693 328.812,254.550 327.241 C 256.579 326.125,257.189 325.953,259.830 325.750 C 263.465 325.470,263.640 325.252,261.698 323.417 L 260.171 321.974 260.520 320.587 C 261.094 318.308,261.238 318.399,257.396 318.619 C 254.321 318.795,253.591 318.726,251.037 318.024 C 247.736 317.116,247.370 317.078,247.197 317.633 M276.658 320.278 C 276.279 320.891,275.398 321.845,274.700 322.398 C 273.062 323.695,273.083 323.767,275.282 324.458 C 276.300 324.778,277.723 325.462,278.444 325.979 L 279.754 326.917 281.737 325.933 C 282.828 325.392,284.359 324.862,285.141 324.755 C 287.267 324.463,287.436 324.268,286.659 322.994 C 286.293 322.392,285.992 321.408,285.992 320.806 L 285.990 319.712 283.635 319.911 C 282.340 320.021,280.782 319.984,280.173 319.829 C 277.305 319.099,277.393 319.088,276.658 320.278 " stroke="none" fill="#043464" fill-rule="evenodd"></path><path id="path1" d="" stroke="none" fill="#083464" fill-rule="evenodd"></path><path id="path2" d="" stroke="none" fill="#083464" fill-rule="evenodd"></path><path id="path3" d="" stroke="none" fill="#083464" fill-rule="evenodd"></path><path id="path4" d="" stroke="none" fill="#083464" fill-rule="evenodd"></path></g></svg>