<svg id="svg" version="1.1" xmlns="http://www.w3.org/2000/svg" xmlns:xlink="http://www.w3.org/1999/xlink" width="400" height="400" viewBox="0, 0, 400,400"><g id="svgg"><path id="path0" d="M16.865 295.337 L 16.865 383.135 104.663 383.135 L 192.460 383.135 192.460 295.337 L 192.460 207.540 104.663 207.540 L 16.865 207.540 16.865 295.337 " stroke="none" fill="#04a4f4" fill-rule="evenodd"></path><path id="path1" d="M207.540 104.663 L 207.540 192.460 295.337 192.460 L 383.135 192.460 383.135 104.663 L 383.135 16.865 295.337 16.865 L 207.540 16.865 207.540 104.663 " stroke="none" fill="#84bc04" fill-rule="evenodd"></path><path id="path2" d="M16.865 104.663 L 16.865 192.460 104.663 192.460 L 192.460 192.460 192.460 104.663 L 192.460 16.865 104.663 16.865 L 16.865 16.865 16.865 104.663 " stroke="none" fill="#f45424" fill-rule="evenodd"></path><path id="path3" d="M207.639 295.337 L 207.639 383.036 295.287 382.986 L 382.936 382.936 382.986 295.287 L 383.036 207.639 295.337 207.639 L 207.639 207.639 207.639 295.337 " stroke="none" fill="#fcbc0c" fill-rule="evenodd"></path><path id="path4" d="M207.632 207.787 C 207.580 207.924,207.560 247.411,207.588 295.536 L 207.639 383.036 295.387 383.086 L 383.135 383.135 383.086 295.387 L 383.036 207.639 295.381 207.589 C 225.361 207.549,207.707 207.589,207.632 207.787 M382.937 295.337 L 382.937 382.937 295.337 382.937 L 207.738 382.937 207.738 295.337 L 207.738 207.738 295.337 207.738 L 382.937 207.738 382.937 295.337 " stroke="none" fill="#fcc42c" fill-rule="evenodd"></path></g></svg>